Chris Marker - La Jetée (1962)
 
http://www.imdb.com/title/tt0056119/



Time travel, still images, a past, present and future and the aftermath of World War III. The tale of a man, a slave, sent back and forth, in and out of time, to find a solution to the world's fate. To replenish its decreasing stocks of food, medicine and energies, and in doing so, resulting in a perpetual memory of a lone female, life, death and past events that are recreated on an airports jetée. Written by Cinema_Fan



General
La.Jetee.1962.720p.BluRay.x264-CiNEFiLE.mkv
Format                                   : Matroska
Format version                           : Version 2
File size                                : 1.09 GiB
Duration                                 : 28mn 6s
Overall bit rate                         : 5 564 Kbps
Encoded date                             : UTC 2012-01-30 07:20:49
Writing application                      : mkvmerge v5.2.1 ('A Far Off Place') built on Jan  2 2012 23:21:10
Writing library                          : libebml v1.2.3 + libmatroska v1.3.0

Video
ID                                       : 1
Format                                   : AVC
Format/Info                              : Advanced Video Codec
Format profile                           : High@L4.1
Format settings, CABAC                   : Yes
Format settings, ReFrames                : 5 frames
Codec ID                                 : V_MPEG4/ISO/AVC
Duration                                 : 28mn 6s
Bit rate                                 : 4 922 Kbps
Width                                    : 1 184 pixels
Height                                   : 720 pixels
Display aspect ratio                     : 1.644
Frame rate                               : 23.976 fps
Color space                              : YUV
Chroma subsampling                       : 4:2:0
Bit depth                                : 8 bits
Scan type                                : Progressive
Bits/(Pixel*Frame)                       : 0.241
Stream size                              : 968 MiB (87%)
Writing library                          : x264 core 120 r2146 bcd41db

Language                                 : English
Default                                  : Yes
Forced                                   : No

Audio
ID                                       : 2
Format                                   : AC-3
Format/Info                              : Audio Coding 3
Mode extension                           : CM (complete main)
Codec ID                                 : A_AC3
Duration                                 : 28mn 6s
Bit rate mode                            : Constant
Bit rate                                 : 640 Kbps
Channel(s)                               : 1 channel
Channel positions                        : Front: C
Sampling rate                            : 48.0 KHz
Bit depth                                : 16 bits
Compression mode                         : Lossy
Stream size                              : 129 MiB (12%)
Language                                 : French
Default                                  : Yes
Forced                                   : No

Text
ID                                       : 3
Format                                   : UTF-8
Codec ID                                 : S_TEXT/UTF8
Codec ID/Info                            : UTF-8 Plain Text
Language                                 : English
Default                                  : Yes
Forced                                   : No
